# xmcd
#
# Track frame offsets: 
#        150
#        15683
#        37531
#
# Disc length: 688 seconds
#
# Revision: 0
# Processed by: cddbd v1.5.1PL0 Copyright (c) Steve Scherf et al.
# Submitted via: ExactAudioCopy v0.95b2
#
DISCID=1202ae03
DTITLE=Can't Stand Me Now - The Libertines
DYEAR=2004
DGENRE=Indie
TTITLE0=Can't Stand Me Now
TTITLE1=Cyclops
TTITLE2=Dilly Boys
EXTD=
EXTT0=
EXTT1=
EXTT2=
PLAYORDER=
